<?xml version="1.0" encoding="UTF-8"?>
<svg id="Ebene_1" data-name="Ebene 1" xmlns="http://www.w3.org/2000/svg" viewBox="0 0 97.42 119.1">
  <defs>
    <style>
      .cls-1 {
        fill: #65dc8a;
      }
    </style>
  </defs>
  <g id="zQilPh.tif">
    <g>
      <path class="cls-1" d="M81.18,38.13c0-3.35,2.46-5.64,5.46-5.63s5.39,2.35,5.38,5.52l-.03,60.08c0,11.54-9.45,20.97-20.97,20.98l-44.39.02c-11.46,0-21.18-9.19-21.19-20.75l-.06-60.33c0-3.18,2.47-5.51,5.39-5.52s5.44,2.32,5.44,5.52l.07,60.33c0,5.8,5.05,9.95,10.61,9.95h43.61c6.1,0,10.72-4.61,10.71-10.72l-.03-59.44Z"/>
      <path class="cls-1" d="M92.2,27.04l-86.32.05c-3.25,0-5.74-2.08-5.87-5.24-.12-2.92,2.19-5.59,5.34-5.6l21.7-.03V5.5c.02-3.07,2.34-5.44,5.45-5.5h32.44c3.11.06,5.43,2.42,5.43,5.5v10.72s21.71.04,21.71.04c2.96,0,5.21,2.34,5.34,5.13s-1.94,5.65-5.22,5.65ZM59.54,10.83h-21.66v5.41h21.66v-5.41Z"/>
      <path class="cls-1" d="M43.29,52.45v-3.77c0-3.17-2.67-5.47-5.61-5.35-2.94.11-5.22,2.46-5.22,5.58v12.63h.03v3.76c0,3.09,2.56,5.35,5.43,5.33,2.86-.03,5.38-2.25,5.38-5.47v-12.71h-.01Z"/>
      <path class="cls-1" d="M64.94,52.45v-3.8c0-3.1-2.57-5.35-5.43-5.33-2.86.02-5.38,2.28-5.38,5.36v12.86h.01v3.73c0,3.08,2.52,5.35,5.36,5.36,2.88.01,5.45-2.2,5.44-5.45v-12.73h0Z"/>
      <path class="cls-1" d="M53.88,97.19h4.34c3.54,0,6.11-2.93,6.09-6.2-.02-3.27-2.6-6.14-6.12-6.14h-14.68s-4.26.01-4.26.01c-3.52,0-6.11,2.88-6.12,6.12-.01,3.29,2.51,6.22,6.22,6.21h14.54Z"/>
    </g>
  </g>
</svg>